<?xml version="1.0" encoding="utf-8"?>
<!-- Generator: Adobe Illustrator 20.1.0, SVG Export Plug-In . SVG Version: 6.00 Build 0)  -->
<svg version="1.1" xmlns="http://www.w3.org/2000/svg" xmlns:xlink="http://www.w3.org/1999/xlink" x="0px" y="0px"
	 viewBox="0 0 204 209.5" style="enable-background:new 0 0 204 209.5;" xml:space="preserve">
<style type="text/css">
	.st0{fill:none;stroke:#FFFFFF;stroke-width:10;stroke-linecap:round;stroke-linejoin:round;stroke-miterlimit:10;}
	.st1{fill:none;stroke:#FFFFFF;stroke-width:10;stroke-miterlimit:10;stroke-dasharray:13.2499,13.2499;}
	.st2{fill:none;stroke:#FFFFFF;stroke-width:11;stroke-linecap:round;stroke-linejoin:round;stroke-miterlimit:10;}
	.st3{fill:#FFFFFF;}
</style>
<g id="Layer_1">
	<path class="st0" d="M30.3,42.1C48.1,22.7,73.6,10.5,102,10.5c53.6,0,97,43.4,97,97s-43.4,97-97,97s-97-43.4-97-97"/>
	<g>
		<circle class="st1" cx="522" cy="107.5" r="97"/>
	</g>
	<polyline class="st2" points="102,52.4 102,107.5 126.4,141.8 	"/>
	<polyline class="st2" points="522,52.4 522,107.5 546.4,141.8 	"/>
</g>
<g id="Layer_2">
	<g>
		<g>
			<path class="st3" d="M23.1,5.7c-1.3,13.6-2.7,27.1-4,40.7c-0.3,3.2,3,6,6,6c12.7,0,25.3,0,38,0c7.7,0,7.7-12,0-12
				c-12.7,0-25.3,0-38,0c2,2,4,4,6,6c1.3-13.6,2.7-27.1,4-40.7C35.9-1.9,23.9-1.9,23.1,5.7L23.1,5.7z"/>
		</g>
	</g>
</g>
</svg>
