<?xml version="1.0" encoding="utf-8"?>
<!-- Generator: Adobe Illustrator 20.1.0, SVG Export Plug-In . SVG Version: 6.00 Build 0)  -->
<svg version="1.1" xmlns="http://www.w3.org/2000/svg" xmlns:xlink="http://www.w3.org/1999/xlink" x="0px" y="0px"
	 viewBox="0 0 204 204" style="enable-background:new 0 0 204 204;" xml:space="preserve">
<style type="text/css">
	.st0{fill:none;stroke:#FFFFFF;stroke-width:10;stroke-linecap:round;stroke-linejoin:round;stroke-miterlimit:10;}
	.st1{fill:none;stroke:#FFFFFF;stroke-width:10;stroke-miterlimit:10;stroke-dasharray:13.2499,13.2499;}
	.st2{fill:none;stroke:#FFFFFF;stroke-width:11;stroke-linecap:round;stroke-linejoin:round;stroke-miterlimit:10;}
	.st3{fill:#FFFFFF;}
</style>
<g id="Layer_1">
	<path class="st0" d="M-389.7,36.6C-371.9,17.2-346.4,5-318,5c53.6,0,97,43.4,97,97s-43.4,97-97,97s-97-43.4-97-97"/>
	<g>
		<circle class="st1" cx="102" cy="102" r="97"/>
	</g>
	<polyline class="st2" points="-318,46.9 -318,102 -293.6,136.3 	"/>
	<polyline class="st2" points="102,46.9 102,102 126.4,136.3 	"/>
</g>
<g id="Layer_2">
	<g>
		<g>
			<path class="st3" d="M-396.9,0.2c-1.3,13.6-2.7,27.1-4,40.7c-0.3,3.2,3,6,6,6c12.7,0,25.3,0,38,0c7.7,0,7.7-12,0-12
				c-12.7,0-25.3,0-38,0c2,2,4,4,6,6c1.3-13.6,2.7-27.1,4-40.7C-384.1-7.4-396.1-7.4-396.9,0.2L-396.9,0.2z"/>
		</g>
	</g>
</g>
</svg>
