<?xml version="1.0" encoding="utf-8"?>
<!-- Generator: Adobe Illustrator 16.0.0, SVG Export Plug-In . SVG Version: 6.00 Build 0)  -->
<!DOCTYPE svg PUBLIC "-//W3C//DTD SVG 1.1//EN" "http://www.w3.org/Graphics/SVG/1.1/DTD/svg11.dtd">
<svg version="1.1" id="Layer_1" xmlns="http://www.w3.org/2000/svg" xmlns:xlink="http://www.w3.org/1999/xlink" x="0px" y="0px"
	 width="48.5px" height="48.5px" viewBox="0 0 48.5 48.5" enable-background="new 0 0 48.5 48.5" xml:space="preserve">
<g>
	<path fill="none" stroke="#000000" stroke-width="1.2" stroke-miterlimit="10" d="M34.001,33.997
		c-0.104,1.817-0.481,3.784-1.687,5.505c-1.719,2.46-4.638,2.989-7.037,2.598c-0.196-0.031-0.457-0.479-0.465-0.742
		c-0.142-3.947,2.311-7.25,6.234-8.428c0.616-0.184,1.26-0.287,1.893-0.406c0.947-0.181,1.051-0.09,1.062,0.844
		C34.003,33.501,34.001,33.636,34.001,33.997z"/>
	<path fill="none" stroke="#000000" stroke-width="1.2" stroke-miterlimit="10" d="M14.503,31.22
		c-0.021-1.228-0.021-1.228,1.365-1.089c3.944,0.393,6.797,2.6,7.822,6.111c0.217,0.74,0.292,1.527,0.411,2.298
		c0.08,0.524-0.15,0.763-0.705,0.836c-4.65,0.613-7.818-1.715-8.651-6.397C14.641,32.396,14.583,31.807,14.503,31.22z"/>
	<path fill="none" stroke="#000000" stroke-width="1.2" stroke-miterlimit="10" d="M23.073,30.389
		c-3.375-0.015-5.655-1.929-6.362-5.273c-0.167-0.788-0.215-1.604-0.292-2.408c-0.054-0.577,0.125-0.922,0.821-0.84
		c4.39,0.512,7.196,3.142,7.456,7.527c0.034,0.592-0.138,0.936-0.798,0.916C23.577,30.302,23.254,30.37,23.073,30.389z"/>
	<path fill="none" stroke="#000000" stroke-width="1.2" stroke-miterlimit="10" d="M32.199,29.577
		c-1.196,2.798-3.811,3.522-6.321,3.399c-0.737-0.037-0.676-0.578-0.685-1.052c-0.049-3.259,1.721-5.93,4.752-7.134
		c0.673-0.268,1.382-0.459,2.089-0.619c0.834-0.187,0.981-0.037,1.008,0.842C33.048,25.23,32.718,28.361,32.199,29.577z"/>
	<path fill="none" stroke="#000000" stroke-width="1.2" stroke-miterlimit="10" d="M32.285,17.435c-0.139,0.85-0.2,1.722-0.43,2.547
		c-0.953,3.442-3.629,4.373-6.235,4.291c-0.649-0.022-0.617-0.496-0.644-0.918c-0.211-3.412,1.807-6.23,5.224-7.311
		c0.051-0.017,0.106-0.019,0.157-0.035C32.117,15.482,32.212,15.555,32.285,17.435z"/>
	<path fill="none" stroke="#000000" stroke-width="1.2" stroke-miterlimit="10" d="M17.422,15.268
		c-0.032-2.361,0.083-2.44,2.203-1.683c3.368,1.204,5.299,4.223,4.862,7.534c-0.075,0.561-0.307,0.711-0.836,0.716
		c-3.458,0.031-5.917-2.213-6.168-5.665C17.457,15.819,17.436,15.469,17.422,15.268z"/>
	<path fill="none" stroke="#000000" stroke-width="1.2" stroke-miterlimit="10" d="M28.508,11.43
		c-0.105,2.075-1.13,3.716-2.615,5.103c-0.134,0.126-0.65,0.074-0.795-0.081c-3.097-3.308-3.069-6.827,0.207-10.047
		c0.156-0.151,0.717-0.162,0.859-0.016C27.518,7.78,28.434,9.399,28.508,11.43z"/>
</g>
<circle fill="none" stroke="#000000" stroke-width="1.5" stroke-miterlimit="10" cx="24.25" cy="24.249" r="23.5"/>
<path fill="none" stroke="#000000" stroke-width="0.7" stroke-linecap="round" stroke-linejoin="round" stroke-miterlimit="10" d="
	M27.117,21.055c0,0,0.5-1.75,2.75-3"/>
<line fill="none" stroke="#000000" stroke-width="1.5" stroke-miterlimit="10" x1="7.562" y1="40.812" x2="40.688" y2="7.688"/>
</svg>
