<?xml version="1.0" encoding="utf-8"?>
<!-- Generator: Adobe Illustrator 20.1.0, SVG Export Plug-In . SVG Version: 6.00 Build 0)  -->
<svg version="1.1" id="Layer_1" xmlns="http://www.w3.org/2000/svg" xmlns:xlink="http://www.w3.org/1999/xlink" x="0px" y="0px"
	 viewBox="0 0 26.2 26.2" style="enable-background:new 0 0 26.2 26.2;" xml:space="preserve">
<style type="text/css">
	.st0{fill:none;}
	.st1{fill:#333333;}
</style>
<g id="Layer_1_1_">
	<g id="g10" transform="matrix(1.3333333,0,0,-1.3333333,0,608.37333)">
		<g id="g12" transform="scale(0.1)">
			<g id="g14">
				<rect x="85.3" y="4477.5" class="st0" width="26.2" height="-26.2"/>
				<g id="g16">
					<path id="path22" class="st1" d="M98.4,4562.8c-26.7,0-30.1-0.1-40.6-0.6c-10.5-0.5-17.6-2.1-23.9-4.6
						c-6.5-2.5-12-5.9-17.4-11.3c-5.5-5.5-8.8-11-11.4-17.4c-2.4-6.3-4.1-13.4-4.6-23.9c-0.5-10.5-0.6-13.8-0.6-40.6
						c0-26.7,0.1-30.1,0.6-40.6c0.5-10.5,2.1-17.6,4.6-23.9c2.5-6.5,5.9-12,11.4-17.4c5.5-5.5,11-8.8,17.4-11.3
						c6.3-2.4,13.4-4.1,23.9-4.6c10.5-0.5,13.9-0.6,40.6-0.6c26.7,0,30.1,0.1,40.6,0.6c10.5,0.5,17.6,2.1,23.9,4.6
						c6.5,2.5,12,5.9,17.4,11.3s8.8,11,11.4,17.4c2.4,6.3,4.1,13.4,4.6,23.9c0.5,10.5,0.6,13.9,0.6,40.6c0,26.7-0.1,30.1-0.6,40.6
						c-0.5,10.5-2.1,17.6-4.6,23.9c-2.5,6.5-5.9,12-11.4,17.4c-5.5,5.5-11,8.8-17.4,11.3c-6.3,2.4-13.4,4.1-23.9,4.6
						C128.5,4562.7,125.1,4562.8,98.4,4562.8 M98.4,4545.1c26.3,0,29.4-0.1,39.8-0.6c9.6-0.4,14.8-2,18.3-3.4
						c4.6-1.8,7.9-3.9,11.3-7.4c3.4-3.5,5.6-6.7,7.4-11.3c1.3-3.5,3-8.7,3.4-18.3c0.5-10.4,0.6-13.5,0.6-39.8
						c0-26.3-0.1-29.4-0.6-39.8c-0.4-9.6-2-14.8-3.4-18.3c-1.8-4.6-3.9-7.9-7.4-11.3c-3.4-3.4-6.7-5.6-11.3-7.4
						c-3.5-1.3-8.7-3-18.3-3.4c-10.4-0.5-13.5-0.6-39.8-0.6c-26.3,0-29.4,0.1-39.8,0.6c-9.6,0.4-14.8,2-18.3,3.4
						c-4.6,1.8-7.9,3.9-11.3,7.4s-5.6,6.7-7.4,11.3c-1.3,3.5-3,8.7-3.4,18.3c-0.5,10.4-0.6,13.5-0.6,39.8c0,26.3,0.1,29.4,0.6,39.8
						c0.4,9.6,2,14.8,3.4,18.3c1.8,4.6,3.9,7.9,7.4,11.3c3.4,3.4,6.7,5.6,11.3,7.4c3.5,1.3,8.7,3,18.3,3.4
						C69,4545,72.1,4545.1,98.4,4545.1"/>
					<path id="path24" class="st1" d="M98.4,4431.6c-18.1,0-32.8,14.7-32.8,32.8s14.7,32.8,32.8,32.8s32.8-14.7,32.8-32.8
						S116.5,4431.6,98.4,4431.6 M98.4,4514.9c-27.9,0-50.5-22.6-50.5-50.5c0-27.9,22.6-50.5,50.5-50.5c27.9,0,50.5,22.6,50.5,50.5
						C149,4492.3,126.3,4514.9,98.4,4514.9"/>
					<path id="path26" class="st1" d="M162.8,4516.9c0-6.5-5.3-11.8-11.8-11.8c-6.5,0-11.8,5.3-11.8,11.8c0,6.5,5.3,11.8,11.8,11.8
						C157.5,4528.7,162.8,4523.4,162.8,4516.9"/>
				</g>
			</g>
		</g>
	</g>
</g>
<g id="Layer_2">
</g>
</svg>
