<?xml version="1.0" encoding="utf-8"?>
<!-- Generator: Adobe Illustrator 16.0.0, SVG Export Plug-In . SVG Version: 6.00 Build 0)  -->
<!DOCTYPE svg PUBLIC "-//W3C//DTD SVG 1.1//EN" "http://www.w3.org/Graphics/SVG/1.1/DTD/svg11.dtd">
<svg version="1.1" id="Layer_1" xmlns="http://www.w3.org/2000/svg" xmlns:xlink="http://www.w3.org/1999/xlink" x="0px" y="0px"
	 width="48.5px" height="48.5px" viewBox="0 0 48.5 48.5" enable-background="new 0 0 48.5 48.5" xml:space="preserve">
<path fill="none" stroke="#000000" stroke-width="1.4" stroke-miterlimit="10" d="M84.859,22.67c0,0-3.983-4.704,0-9.584
	c4.756-5.827,11.014-0.818,12.236,2.241c1.225,3.061,0.612,6.935,3.061,8.566c2.447,1.63,5.709,3.47,5.302,8.771
	s-6.407,5.753-8.974,5.301c-2.283-0.4-4.487-1.63-5.099-7.748C90.773,24.099,88.328,26.747,84.859,22.67z"/>
<circle cx="88.507" cy="15.531" r="0.97"/>
<circle cx="90.955" cy="17.981" r="0.97"/>
<circle cx="91.527" cy="15.236" r="1.008"/>
<circle fill="none" stroke="#000000" stroke-width="1.5" stroke-miterlimit="10" cx="94.292" cy="24.248" r="23.5"/>
<g>
	<path fill="#FFC440" d="M15.071,24.773c-0.17-0.517-0.714-0.908-1.084-1.359c-0.489-0.597-1.215-1.123-1.419-1.805
		c-0.867-2.894,0.844-6.154,3.683-7.287c2.999-1.145,4.385-1.718,4.52-4.235c0.021-0.375,0.719-0.888,1.188-1.011
		c0.4-0.104,1.138,0.116,1.357,0.441c1.229,1.809,2.734,1.955,4.72,1.352c3.353-1.018,6.485,0.564,7.688,3.741
		c0.249,0.655,0.351,1.666,0.013,2.18c-0.61,0.929-0.332,1.68-0.104,2.545c0.684,2.612,1.619,5.196,1.944,7.854
		c0.671,5.459-2.854,9.89-6.789,11.787c-1.551,0.748-3.827,0.465-5.653,0.082c-4.489-0.942-7.034-4.107-8.443-8.306
		c-0.259-0.769-0.462-1.558-0.69-2.336C15.984,28.423,15.463,25.961,15.071,24.773z M15.966,23.495
		c0.859,2.927,1.45,5.729,2.502,8.344c1.78,4.42,5.81,6.729,10.575,6.413c0.396-0.027,0.85-0.055,1.166-0.256
		c3.662-2.318,6.417-5.406,6.144-9.952c-0.176-2.916-1.3-5.771-1.937-8.667c-0.229-1.04-0.707-1.121-1.632-0.839
		c-4.056,1.237-8.133,2.406-12.201,3.602C19.076,22.582,17.57,23.024,15.966,23.495z M22.038,10.937
		c-0.109,0.39,0.211,2.908-3.226,3.772c-0.821,0.237-1.626,0.556-2.399,0.918c-2.009,0.946-3.093,2.586-2.707,4.759
		c0.195,1.098,0.929,2.176,2.062,1.854c1.728-0.492,3.233-0.928,4.956-1.434c4.201-1.234,8.406-2.459,12.604-3.702
		c1.497-0.441,1.798-1.146,1.07-2.507c-0.231-0.431-0.534-0.839-0.872-1.195c-1.709-1.812-3.803-1.924-5.996-1.185
		C23.916,13.448,22.491,11.379,22.038,10.937z"/>
	<path fill="#FFC440" d="M33.317,24.001c0.787,2.571,0.715,5.071-0.668,7.449c-0.181,0.311-0.361,0.671-0.642,0.858
		c-0.274,0.187-0.75,0.491-1.024,0.264c-0.248-0.206-0.103-0.742,0.058-0.954c1.909-2.538,1.832-5.274,0.901-8.115
		c-0.099-0.301-0.241-0.617-0.218-0.916c0.021-0.252,0.119-0.664,0.39-0.729s0.59,0.25,0.685,0.465
		C33.034,22.854,33.152,23.438,33.317,24.001z"/>
	<path fill="#FFC440" d="M30.797,15.667c-0.047,0.21-0.392,0.342-0.541,0.31c-1.271-0.272-2.529-0.593-3.785-0.929
		c-0.109-0.029-0.239-0.444-0.168-0.57c0.117-0.202,0.373-0.379,0.606-0.449C28.201,13.637,31.139,14.119,30.797,15.667z"/>
</g>
<circle fill="none" stroke="#FFC440" stroke-width="1.5" stroke-miterlimit="10" cx="25" cy="24.248" r="23.5"/>
</svg>
