<?xml version="1.0" encoding="utf-8"?>
<!-- Generator: Adobe Illustrator 16.0.0, SVG Export Plug-In . SVG Version: 6.00 Build 0)  -->
<!DOCTYPE svg PUBLIC "-//W3C//DTD SVG 1.1//EN" "http://www.w3.org/Graphics/SVG/1.1/DTD/svg11.dtd">
<svg version="1.1" id="Layer_1" xmlns="http://www.w3.org/2000/svg" xmlns:xlink="http://www.w3.org/1999/xlink" x="0px" y="0px"
	 width="48.5px" height="48.5px" viewBox="0 0 48.5 48.5" enable-background="new 0 0 48.5 48.5" xml:space="preserve">
<g id="Layer_1_1_">
	
		<image overflow="visible" enable-background="new    " width="450" height="372" xlink:href="../../../../../../../Downloads/stock-vector-set-of-round-icons-of-various-diets-and-ingredient-labels-including-ketogenic-paleolitic-274105949.jpg"  transform="matrix(0.5259 0 0 0.5259 152.4297 -296.5312)">
	</image>
</g>
<path d="M-18.356-47.9c0,0-5.316-6.278,0-12.792c6.349-7.777,14.7-1.092,16.333,2.992c1.634,4.084,0.817,9.255,4.084,11.434
	c3.267,2.179,7.621,4.632,7.077,11.708C8.594-27.483,0.585-26.88-2.84-27.483c-3.048-0.535-5.989-2.175-6.806-10.342
	C-10.462-45.992-13.728-42.458-18.356-47.9z"/>
<circle fill="#FFFFFF" cx="-13.711" cy="-57.649" r="1.072"/>
<circle fill="#FFFFFF" cx="-10.443" cy="-54.38" r="1.072"/>
<circle fill="#FFFFFF" cx="-9.679" cy="-57.599" r="1.123"/>
<g>
	<path fill="none" stroke="#000000" stroke-width="1.5" stroke-miterlimit="10" d="M61.689-87.924c0,0-5.315-6.278,0-12.792
		c6.35-7.777,14.701-1.092,16.334,2.992c1.634,4.084,0.816,9.255,4.084,11.434c3.267,2.179,7.621,4.632,7.076,11.708
		c-0.543,7.075-8.553,7.679-11.978,7.075c-3.048-0.535-5.989-2.175-6.806-10.342S66.318-82.481,61.689-87.924z"/>
	<circle cx="66.335" cy="-97.673" r="1.072"/>
	<circle cx="69.604" cy="-94.403" r="1.072"/>
	<circle cx="70.368" cy="-97.622" r="1.123"/>
</g>
<path d="M37.559-100.335c-0.199,1.125-0.257,2.298-0.625,3.364c-0.918,2.662-1.906,5.304-2.998,7.899
	C33-86.844,31.423-85.12,29.24-84.006c-2.088,1.064-4.4,0.755-6.104-0.809c-1.742-1.599-2.404-3.703-1.113-5.812
	c1.892-3.091,3.073-6.255,3.42-9.888c0.142-1.471,1.293-2.945,2.256-4.212c1.48-1.949,3.51-3.083,6.02-2.26
	c2.504,0.822,3.307,2.998,3.653,5.378c0.06,0.409,0.009,0.833,0.009,1.251C37.439-100.35,37.499-100.343,37.559-100.335z
	 M36.049-100.181c-0.054-0.711-0.023-1.25-0.146-1.75c-0.395-1.604-0.937-3.159-2.717-3.727c-1.75-0.559-3.057,0.35-4.145,1.555
	c-1.581,1.75-2.634,3.768-2.605,6.207c0.023,2.06-0.567,3.904-1.797,5.559c-0.436,0.585-0.832,1.208-1.173,1.853
	c-0.903,1.71-0.704,3.245,0.527,4.446c1.451,1.417,3.023,1.778,4.674,0.626c1.329-0.928,2.752-2.084,3.445-3.48
	c1.455-2.93,2.488-6.072,3.621-9.155C35.996-98.765,35.968-99.589,36.049-100.181z"/>
<path d="M-5.724-74.688c15.975,0.009,28.914,12.986,28.853,28.94c-0.062,16.092-12.965,28.865-29.15,28.852
	C-21.824-16.91-34.699-29.965-34.666-45.94C-34.634-61.85-21.699-74.699-5.724-74.688z M-24.972-28.67
	c1.889-1.9,3.774-3.797,5.685-5.719c0.367,1.107,1.138,2.236,0.928,3.141c-0.212,0.91-1.391,1.6-2.155,2.377
	c-0.776,0.791-1.563,1.57-2.348,2.355c10.148,9.094,26.26,8.902,36.144-1.885c9.651-10.533,8.339-25.81,0.019-34.665
	c-2.544,2.62-5.08,5.233-7.477,7.702c-0.489-0.85-0.981-1.706-1.508-2.619c2.255-2.244,4.643-4.626,7.033-7.007
	c-8.572-8.169-24.358-9.724-35.074,0.656C-34.406-53.986-33.617-37.965-24.972-28.67z"/>
<circle fill="none" stroke="#000000" stroke-width="1.5" stroke-miterlimit="10" cx="24.25" cy="24.25" r="23.5"/>
<path fill="none" stroke="#000000" stroke-width="1.4" stroke-miterlimit="10" d="M84.859,22.67c0,0-3.983-4.704,0-9.584
	c4.756-5.827,11.014-0.818,12.236,2.241c1.225,3.061,0.612,6.935,3.061,8.566c2.447,1.63,5.709,3.47,5.302,8.771
	s-6.407,5.753-8.974,5.301c-2.283-0.4-4.487-1.63-5.099-7.748C90.773,24.099,88.328,26.747,84.859,22.67z"/>
<circle cx="88.507" cy="15.531" r="0.97"/>
<circle cx="90.955" cy="17.981" r="0.97"/>
<circle cx="91.527" cy="15.236" r="1.008"/>
<circle fill="none" stroke="#000000" stroke-width="1.5" stroke-miterlimit="10" cx="94.292" cy="24.248" r="23.5"/>
<g>
	<path d="M14.32,24.776c-0.17-0.517-0.714-0.909-1.084-1.36c-0.489-0.597-1.215-1.123-1.419-1.805
		c-0.867-2.894,0.844-6.154,3.682-7.287c2.999-1.145,4.385-1.718,4.52-4.235c0.02-0.375,0.719-0.888,1.188-1.011
		c0.401-0.104,1.138,0.116,1.358,0.441c1.228,1.809,2.734,1.955,4.719,1.352c3.353-1.018,6.485,0.564,7.688,3.741
		c0.249,0.655,0.351,1.666,0.013,2.18c-0.61,0.929-0.332,1.68-0.104,2.545c0.684,2.612,1.619,5.196,1.944,7.855
		c0.671,5.459-2.854,9.89-6.789,11.787c-1.551,0.748-3.827,0.465-5.652,0.082c-4.49-0.942-7.035-4.107-8.444-8.306
		c-0.259-0.769-0.462-1.558-0.691-2.336C15.233,28.426,14.711,25.964,14.32,24.776z M15.214,23.498
		c0.86,2.927,1.45,5.73,2.502,8.344c1.78,4.42,5.81,6.729,10.576,6.413c0.395-0.027,0.849-0.055,1.166-0.256
		c3.661-2.318,6.416-5.406,6.143-9.952c-0.176-2.916-1.3-5.771-1.937-8.667c-0.229-1.04-0.707-1.121-1.632-0.839
		c-4.056,1.237-8.132,2.406-12.201,3.602C18.325,22.584,16.819,23.026,15.214,23.498z M21.287,10.939
		c-0.11,0.39,0.21,2.908-3.226,3.772c-0.821,0.237-1.626,0.556-2.399,0.918c-2.009,0.946-3.093,2.586-2.707,4.759
		c0.195,1.098,0.929,2.176,2.062,1.854c1.728-0.492,3.233-0.928,4.956-1.434c4.202-1.234,8.407-2.459,12.604-3.702
		c1.497-0.441,1.799-1.146,1.07-2.507c-0.23-0.431-0.534-0.839-0.872-1.195c-1.709-1.812-3.803-1.924-5.996-1.185
		C23.164,13.451,21.74,11.381,21.287,10.939z"/>
	<path d="M32.565,24.003c0.787,2.572,0.715,5.072-0.668,7.45c-0.181,0.311-0.361,0.671-0.641,0.858
		c-0.275,0.187-0.751,0.491-1.025,0.264c-0.248-0.206-0.102-0.742,0.059-0.954c1.908-2.538,1.831-5.274,0.9-8.116
		c-0.098-0.301-0.241-0.617-0.218-0.916c0.021-0.252,0.119-0.664,0.39-0.729c0.271-0.065,0.59,0.25,0.686,0.465
		C32.282,22.856,32.4,23.44,32.565,24.003z"/>
	<path d="M30.045,15.669c-0.046,0.21-0.392,0.342-0.541,0.31c-1.271-0.272-2.529-0.593-3.784-0.929
		c-0.11-0.029-0.24-0.444-0.168-0.57c0.116-0.202,0.373-0.379,0.605-0.449C27.449,13.64,30.387,14.122,30.045,15.669z"/>
</g>
<circle fill="none" stroke="#000000" stroke-width="1.5" stroke-miterlimit="10" cx="-25.779" cy="24.248" r="23.5"/>
<circle fill="none" stroke="#000000" stroke-width="1.5" stroke-miterlimit="10" cx="-85.813" cy="24.248" r="23.5"/>
<line fill="none" stroke="#000000" stroke-width="1.5" stroke-linecap="round" stroke-linejoin="round" stroke-miterlimit="10" x1="-102.355" y1="40.789" x2="-69.273" y2="7.707"/>
<line fill="none" stroke="#000000" stroke-width="1.5" stroke-miterlimit="10" x1="7.633" y1="40.867" x2="40.75" y2="7.75"/>
</svg>
