<?xml version="1.0" encoding="utf-8"?>
<!-- Generator: Adobe Illustrator 16.0.0, SVG Export Plug-In . SVG Version: 6.00 Build 0)  -->
<!DOCTYPE svg PUBLIC "-//W3C//DTD SVG 1.1//EN" "http://www.w3.org/Graphics/SVG/1.1/DTD/svg11.dtd">
<svg version="1.1" id="Layer_1" xmlns="http://www.w3.org/2000/svg" xmlns:xlink="http://www.w3.org/1999/xlink" x="0px" y="0px"
	 width="48.498px" height="48.498px" viewBox="0 0 48.498 48.498" enable-background="new 0 0 48.498 48.498" xml:space="preserve">
<circle fill="none" stroke="#FFC440" stroke-width="1.5" stroke-miterlimit="10" cx="24.249" cy="24.248" r="23.499"/>
<path fill="none" stroke="#FFC440" stroke-width="1.3" stroke-miterlimit="10" d="M11.641,25.013
	c-0.272-3.672,2.438-7.215,5.976-7.806c1.402-0.235,2.797-0.104,4.033,0.583c1.75,0.972,3.337,0.897,5.154,0.034
	c4.957-2.354,9.57,1.463,9.981,5.764c0.45,4.706-0.724,8.988-4.642,11.97c-4.045,3.073-8.622,3.367-13.236,1.486
	c-4.39-1.79-6.518-5.388-7.15-9.966c-0.037-0.279-0.099-0.558-0.111-0.837C11.627,25.832,11.641,25.422,11.641,25.013z"/>
<path fill="none" stroke="#FFC440" stroke-width="1.3" stroke-miterlimit="10" d="M19.967,9.276c4.52-0.08,5.659,3.088,5.691,6.31
	c0.005,0.511-0.304,0.554-0.712,0.54c-3.181-0.106-6.486-2.774-7.217-5.837c-0.103-0.438-0.053-0.759,0.492-0.81
	C18.805,9.425,19.386,9.345,19.967,9.276z"/>
<path fill="none" stroke="#FFC440" stroke-linecap="round" stroke-linejoin="round" stroke-miterlimit="10" d="M17.265,20.761
	c0,0-2.667,1.5-2.5,4"/>
</svg>
