<?xml version="1.0" encoding="utf-8"?>
<!-- Generator: Adobe Illustrator 20.1.0, SVG Export Plug-In . SVG Version: 6.00 Build 0)  -->
<svg version="1.1" id="Layer_1" xmlns="http://www.w3.org/2000/svg" xmlns:xlink="http://www.w3.org/1999/xlink" x="0px" y="0px"
	 viewBox="0 0 48.5 48.5" style="enable-background:new 0 0 48.5 48.5;" xml:space="preserve">
<path d="M24.2,48.5C10.9,48.5,0,37.6,0,24.2C0,10.9,10.9,0,24.2,0s24.2,10.9,24.2,24.2C48.5,37.6,37.6,48.5,24.2,48.5z M24.2,1.5
	C11.7,1.5,1.5,11.7,1.5,24.2C1.5,36.8,11.7,47,24.2,47S47,36.8,47,24.2C47,11.7,36.8,1.5,24.2,1.5z"/>
<path d="M24.5,38.9c-1.9,0-3.9-0.4-5.8-1.2c-4.3-1.7-6.8-5.3-7.5-10.5l0-0.3c0-0.2-0.1-0.4-0.1-0.6c0-0.3,0-0.6,0-0.9l0-0.3
	c-0.3-4,2.6-7.8,6.5-8.5c1.7-0.3,3.2-0.1,4.5,0.7c1.5,0.8,2.8,0.8,4.6,0c2.3-1.1,4.8-1,6.9,0.2c2.2,1.3,3.8,3.6,4,6.1
	c0.5,5.5-1.1,9.7-4.9,12.5C30.1,37.9,27.4,38.9,24.5,38.9z M18.9,17.7c-0.4,0-0.7,0-1.1,0.1c-3.2,0.5-5.7,3.8-5.4,7.1l0,0l0,0.4
	c0,0.3,0,0.5,0,0.8c0,0.2,0,0.3,0.1,0.5l0,0.3c0.7,4.8,2.9,7.9,6.8,9.4c4.6,1.9,8.9,1.4,12.6-1.4c3.4-2.6,4.9-6.4,4.4-11.4
	c-0.2-2.1-1.5-4.1-3.3-5.1c-1.8-1-3.8-1-5.7-0.1c-2.1,1-3.9,1-5.7-0.1C20.6,18,19.8,17.7,18.9,17.7z"/>
<path d="M25.1,16.8c-0.1,0-0.1,0-0.1,0c-3.5-0.1-7-3-7.8-6.3C17,10.1,17,9.7,17.2,9.3c0.2-0.3,0.5-0.4,0.9-0.5
	c0.4,0,0.8-0.1,1.2-0.1L20,8.6c1.9,0,3.4,0.5,4.5,1.5c1.2,1.2,1.8,3,1.9,5.4c0,0.4-0.1,0.7-0.3,0.9C25.7,16.7,25.3,16.8,25.1,16.8z
	 M18.4,10.1C18.4,10.1,18.4,10.1,18.4,10.1c0.7,2.8,3.7,5.3,6.6,5.4c0,0,0,0,0,0c0-2-0.5-3.5-1.5-4.4c-0.8-0.8-2-1.2-3.5-1.2
	L19.5,10C19.1,10,18.7,10.1,18.4,10.1z"/>
<path d="M14.8,25.3c-0.3,0-0.5-0.2-0.5-0.5c-0.2-2.8,2.6-4.4,2.8-4.5c0.2-0.1,0.5,0,0.7,0.2c0.1,0.2,0.1,0.5-0.2,0.7
	c0,0-2.4,1.4-2.2,3.5C15.3,25,15.1,25.2,14.8,25.3C14.8,25.3,14.8,25.3,14.8,25.3z"/>
</svg>
