<?xml version="1.0" encoding="utf-8"?>
<!-- Generator: Adobe Illustrator 16.0.0, SVG Export Plug-In . SVG Version: 6.00 Build 0)  -->
<!DOCTYPE svg PUBLIC "-//W3C//DTD SVG 1.1//EN" "http://www.w3.org/Graphics/SVG/1.1/DTD/svg11.dtd">
<svg version="1.1" id="Layer_1" xmlns="http://www.w3.org/2000/svg" xmlns:xlink="http://www.w3.org/1999/xlink" x="0px" y="0px"
	 width="48.5px" height="48.5px" viewBox="0 0 48.5 48.5" enable-background="new 0 0 48.5 48.5" xml:space="preserve">
<path fill="#FFC440" d="M15.67,18.799c0-0.453-0.056-0.912,0.009-1.355c0.376-2.576,1.245-4.932,3.954-5.82
	c2.715-0.891,4.913,0.338,6.514,2.446c1.043,1.37,2.289,2.966,2.44,4.558c0.378,3.932,1.655,7.356,3.703,10.701
	c1.397,2.282,0.681,4.562-1.205,6.29c-1.844,1.691-4.347,2.027-6.605,0.875c-2.363-1.205-4.07-3.071-5.083-5.48
	c-1.181-2.811-2.251-5.669-3.245-8.55c-0.397-1.154-0.459-2.424-0.675-3.642C15.542,18.813,15.606,18.806,15.67,18.799z
	 M17.454,21.297c1.226,3.335,2.344,6.736,3.918,9.907c0.751,1.511,2.292,2.763,3.729,3.767c1.785,1.247,3.486,0.855,5.059-0.678
	c1.332-1.3,1.547-2.961,0.57-4.812c-0.369-0.697-0.799-1.371-1.27-2.004c-1.331-1.793-1.971-3.788-1.945-6.018
	c0.031-2.64-1.109-4.822-2.82-6.717c-1.177-1.303-2.59-2.287-4.485-1.683c-1.926,0.614-2.513,2.299-2.939,4.034
	c-0.133,0.541-0.101,1.123-0.159,1.894C17.199,19.629,17.168,20.521,17.454,21.297z"/>
<circle fill="none" stroke="#FFC440" stroke-width="1.5" stroke-miterlimit="10" cx="24.25" cy="24.248" r="23.5"/>
</svg>
