<?xml version="1.0" encoding="utf-8"?>
<!-- Generator: Adobe Illustrator 16.0.0, SVG Export Plug-In . SVG Version: 6.00 Build 0)  -->
<!DOCTYPE svg PUBLIC "-//W3C//DTD SVG 1.1//EN" "http://www.w3.org/Graphics/SVG/1.1/DTD/svg11.dtd">
<svg version="1.1" id="Layer_1" xmlns="http://www.w3.org/2000/svg" xmlns:xlink="http://www.w3.org/1999/xlink" x="0px" y="0px"
	 width="48.5px" height="48.5px" viewBox="0 0 48.5 48.5" enable-background="new 0 0 48.5 48.5" xml:space="preserve">
<g id="Layer_1_1_">
	
		<image overflow="visible" enable-background="new    " width="450" height="372" xlink:href="../../../../../../../Downloads/stock-vector-set-of-round-icons-of-various-diets-and-ingredient-labels-including-ketogenic-paleolitic-274105949.jpg"  transform="matrix(0.5259 0 0 0.5259 152.4297 -296.5312)">
	</image>
</g>
<g id="Layer_2">
	<path d="M-18.356-47.9c0,0-5.316-6.278,0-12.792c6.349-7.777,14.7-1.092,16.333,2.992c1.634,4.084,0.817,9.255,4.084,11.434
		c3.267,2.179,7.621,4.632,7.077,11.708C8.594-27.483,0.585-26.88-2.84-27.483c-3.048-0.535-5.989-2.175-6.806-10.342
		C-10.462-45.992-13.728-42.458-18.356-47.9z"/>
	<circle fill="#FFFFFF" cx="-13.711" cy="-57.649" r="1.072"/>
	<circle fill="#FFFFFF" cx="-10.443" cy="-54.38" r="1.072"/>
	<circle fill="#FFFFFF" cx="-9.679" cy="-57.599" r="1.123"/>
	<g>
		<path fill="none" stroke="#000000" stroke-width="1.5" stroke-miterlimit="10" d="M61.689-87.924c0,0-5.315-6.278,0-12.792
			c6.35-7.777,14.701-1.092,16.334,2.992c1.634,4.084,0.816,9.255,4.084,11.434c3.267,2.179,7.621,4.632,7.076,11.708
			c-0.543,7.075-8.553,7.679-11.978,7.075c-3.048-0.535-5.989-2.175-6.806-10.342S66.318-82.481,61.689-87.924z"/>
		<circle cx="66.335" cy="-97.673" r="1.072"/>
		<circle cx="69.604" cy="-94.403" r="1.072"/>
		<circle cx="70.368" cy="-97.622" r="1.123"/>
	</g>
	<path d="M15.67,18.799c0-0.453-0.056-0.912,0.009-1.355c0.376-2.576,1.245-4.932,3.954-5.82c2.715-0.891,4.913,0.338,6.514,2.446
		c1.043,1.37,2.289,2.966,2.44,4.558c0.378,3.932,1.655,7.356,3.703,10.701c1.397,2.282,0.681,4.562-1.205,6.29
		c-1.844,1.691-4.347,2.027-6.605,0.875c-2.363-1.205-4.07-3.071-5.083-5.48c-1.181-2.811-2.251-5.669-3.245-8.55
		c-0.397-1.154-0.459-2.424-0.675-3.642C15.542,18.813,15.606,18.806,15.67,18.799z M17.454,21.297
		c1.226,3.335,2.344,6.736,3.918,9.907c0.751,1.511,2.292,2.763,3.729,3.767c1.785,1.247,3.486,0.855,5.059-0.678
		c1.332-1.3,1.547-2.961,0.57-4.812c-0.369-0.697-0.799-1.371-1.27-2.004c-1.331-1.793-1.971-3.788-1.945-6.018
		c0.031-2.64-1.109-4.822-2.82-6.717c-1.177-1.303-2.59-2.287-4.485-1.683c-1.926,0.614-2.513,2.299-2.939,4.034
		c-0.133,0.541-0.101,1.123-0.159,1.894C17.199,19.629,17.168,20.521,17.454,21.297z"/>
	<path d="M-5.724-74.688c15.975,0.009,28.914,12.986,28.853,28.94c-0.062,16.092-12.965,28.865-29.15,28.852
		C-21.824-16.91-34.699-29.965-34.666-45.94C-34.634-61.85-21.699-74.699-5.724-74.688z M-24.972-28.67
		c1.889-1.9,3.774-3.797,5.685-5.719c0.367,1.107,1.138,2.236,0.928,3.141c-0.212,0.91-1.391,1.6-2.155,2.377
		c-0.776,0.791-1.563,1.57-2.348,2.355c10.148,9.094,26.26,8.902,36.144-1.885c9.651-10.533,8.339-25.81,0.019-34.665
		c-2.544,2.62-5.08,5.233-7.477,7.702c-0.489-0.85-0.981-1.706-1.508-2.619c2.255-2.244,4.643-4.626,7.033-7.007
		c-8.572-8.169-24.358-9.724-35.074,0.656C-34.406-53.986-33.617-37.965-24.972-28.67z"/>
	<circle fill="none" stroke="#000000" stroke-width="1.5" stroke-miterlimit="10" cx="24.25" cy="24.248" r="23.5"/>
	<g>
		<path d="M-35.707,24.773c-0.17-0.517-0.714-0.908-1.084-1.359c-0.489-0.597-1.215-1.123-1.419-1.805
			c-0.867-2.894,0.844-6.154,3.682-7.287c2.999-1.145,4.385-1.718,4.52-4.235c0.02-0.375,0.719-0.888,1.188-1.011
			c0.401-0.104,1.138,0.116,1.358,0.441c1.228,1.809,2.734,1.955,4.72,1.352c3.352-1.018,6.485,0.564,7.688,3.741
			c0.249,0.655,0.351,1.666,0.013,2.18c-0.611,0.929-0.332,1.68-0.105,2.545c0.684,2.612,1.619,5.196,1.945,7.854
			c0.67,5.459-2.855,9.89-6.789,11.787c-1.551,0.748-3.828,0.465-5.653,0.082c-4.49-0.942-7.035-4.107-8.444-8.306
			c-0.259-0.769-0.462-1.558-0.691-2.336C-34.794,28.423-35.316,25.961-35.707,24.773z M-34.813,23.495
			c0.86,2.927,1.45,5.729,2.502,8.344c1.78,4.42,5.81,6.729,10.576,6.413c0.395-0.027,0.849-0.055,1.166-0.256
			c3.662-2.318,6.416-5.406,6.143-9.952c-0.176-2.916-1.3-5.771-1.937-8.667c-0.229-1.04-0.707-1.121-1.631-0.839
			c-4.056,1.237-8.133,2.406-12.202,3.602C-31.702,22.582-33.208,23.024-34.813,23.495z M-28.74,10.937
			c-0.11,0.39,0.21,2.908-3.226,3.772c-0.821,0.237-1.626,0.556-2.399,0.918c-2.009,0.946-3.093,2.586-2.707,4.759
			c0.195,1.098,0.929,2.176,2.062,1.854c1.728-0.492,3.233-0.928,4.956-1.434c4.202-1.234,8.407-2.459,12.605-3.702
			c1.497-0.441,1.798-1.146,1.07-2.507c-0.231-0.431-0.534-0.839-0.872-1.195c-1.709-1.812-3.803-1.924-5.996-1.185
			C-26.863,13.448-28.287,11.379-28.74,10.937z"/>
		<path d="M-17.461,24.001c0.787,2.571,0.715,5.071-0.668,7.449c-0.181,0.311-0.361,0.671-0.641,0.858
			c-0.275,0.187-0.751,0.491-1.025,0.264c-0.248-0.206-0.102-0.742,0.058-0.954c1.909-2.538,1.831-5.274,0.901-8.115
			c-0.098-0.301-0.241-0.617-0.218-0.916c0.021-0.252,0.119-0.664,0.39-0.729s0.59,0.25,0.685,0.465
			C-17.744,22.854-17.626,23.438-17.461,24.001z"/>
		<path d="M-19.982,15.667c-0.046,0.21-0.391,0.342-0.541,0.31c-1.27-0.272-2.529-0.593-3.784-0.929
			c-0.11-0.029-0.24-0.444-0.168-0.57c0.116-0.202,0.373-0.379,0.606-0.449C-22.577,13.637-19.64,14.119-19.982,15.667z"/>
	</g>
	<circle fill="none" stroke="#000000" stroke-width="1.5" stroke-miterlimit="10" cx="-25.779" cy="24.248" r="23.5"/>
	<circle fill="none" stroke="#000000" stroke-width="1.5" stroke-miterlimit="10" cx="-85.813" cy="24.248" r="23.5"/>
	
		<line fill="none" stroke="#000000" stroke-width="1.5" stroke-linecap="round" stroke-linejoin="round" stroke-miterlimit="10" x1="-102.355" y1="40.789" x2="-69.273" y2="7.707"/>
</g>
<line fill="none" stroke="#000000" stroke-width="1.5" stroke-miterlimit="10" x1="7.634" y1="40.866" x2="40.835" y2="7.664"/>
</svg>
