<?xml version="1.0" encoding="utf-8"?>
<!-- Generator: Adobe Illustrator 16.0.0, SVG Export Plug-In . SVG Version: 6.00 Build 0)  -->
<!DOCTYPE svg PUBLIC "-//W3C//DTD SVG 1.1//EN" "http://www.w3.org/Graphics/SVG/1.1/DTD/svg11.dtd">
<svg version="1.1" id="Layer_1" xmlns="http://www.w3.org/2000/svg" xmlns:xlink="http://www.w3.org/1999/xlink" x="0px" y="0px"
	 width="48.498px" height="48.5px" viewBox="0 0 48.498 48.5" enable-background="new 0 0 48.498 48.5" xml:space="preserve">
<circle fill="none" stroke="#000000" stroke-width="1.5" stroke-miterlimit="10" cx="24.249" cy="24.249" r="23.499"/>
<polyline fill="none" stroke="#000000" stroke-width="1.3" stroke-linecap="round" stroke-linejoin="round" stroke-miterlimit="10" points="
	20.211,30.566 27.079,24.104 27.079,13.468 17.516,12.524 10.38,18.044 20.278,18.786 20.211,30.566 10.245,29.492 10.38,18.044 "/>
<line fill="none" stroke="#000000" stroke-width="1.3" stroke-linecap="round" stroke-linejoin="round" stroke-miterlimit="10" x1="26.78" y1="13.801" x2="20.278" y2="18.786"/>
<polygon fill="#FCFCFC" points="22.365,30.675 23.99,21.675 28.907,20.716 24.552,32.861 22.102,31.27 "/>
<polygon fill="none" stroke="#000000" stroke-width="1.3" stroke-miterlimit="10" points="22.102,31.27 28.411,35.975 36.97,34.05 
	38.253,24.743 32.905,20.466 23.814,21.001 "/>
<polyline fill="none" stroke="#000000" stroke-width="1.3" stroke-miterlimit="1" points="23.814,21.001 30.337,25.921 
	38.253,24.743 "/>
<line fill="none" stroke="#000000" stroke-width="1.3" stroke-miterlimit="1" x1="28.411" y1="35.975" x2="30.337" y2="25.921"/>
<line fill="none" stroke="#000000" stroke-width="1.5" stroke-miterlimit="10" x1="7.369" y1="41.13" x2="40.689" y2="7.809"/>
</svg>
